<svg version="1.1" xmlns="http://www.w3.org/2000/svg" xmlns:xlink="http://www.w3.org/1999/xlink" viewBox="0 0 172 172">
    <g fill="none" fill-rule="nonzero" stroke="none" stroke-width="1" stroke-linecap="butt" stroke-linejoin="miter"
        stroke-miterlimit="10" stroke-dasharray="" stroke-dashoffset="0" font-family="none" font-weight="none"
        font-size="none" text-anchor="none" style="mix-blend-mode: normal">
        <path d="M0,172v-172h172v172z" fill="none"></path>
        <g fill="#042442">
            <path
                d="M80.625,10.75c-38.50683,0 -69.875,31.36817 -69.875,69.875c0,38.50683 31.36817,69.875 69.875,69.875c38.50683,0 69.875,-31.36817 69.875,-69.875c0,-38.50683 -31.36817,-69.875 -69.875,-69.875zM80.625,21.5c32.71192,0 59.125,26.41308 59.125,59.125c0,32.71192 -26.41308,59.125 -59.125,59.125c-32.71192,0 -59.125,-26.41308 -59.125,-59.125c0,-32.71192 26.41308,-59.125 59.125,-59.125zM75.25,53.75v21.5h-21.5v10.75h21.5v21.5h10.75v-21.5h21.5v-10.75h-21.5v-21.5z">
            </path>
        </g>
    </g>
</svg>